<?xml version="1.0" encoding="UTF-8" standalone="no"?>
<!DOCTYPE svg PUBLIC "-//W3C//DTD SVG 1.1//EN"
 "http://www.w3.org/Graphics/SVG/1.1/DTD/svg11.dtd">
<!-- Generated by graphviz version 2.38.0 (20140413.2041)
 -->
<!-- Title: finite_state_machine Pages: 1 -->
<svg width="576pt" height="547pt"
 viewBox="0.00 0.00 576.00 546.74" xmlns="http://www.w3.org/2000/svg" xmlns:xlink="http://www.w3.org/1999/xlink">
<g id="graph0" class="graph" transform="scale(0.700651 0.700651) rotate(0) translate(393.365 390.453)">
<title>finite_state_machine</title>
<polygon fill="white" stroke="none" points="-393.365,389.878 -393.365,-390.453 428.727,-390.453 428.727,389.878 -393.365,389.878"/>
<!-- end1 -->
<g id="node1" class="node"><title>end1</title>
<ellipse fill="black" stroke="black" cx="21.2173" cy="-384.653" rx="1.8" ry="1.8"/>
</g>
<!-- defaultS -->
<g id="node7" class="node"><title>defaultS</title>
<ellipse fill="none" stroke="black" cx="21.2173" cy="-253.308" rx="65" ry="65"/>
<text text-anchor="middle" x="21.2173" y="-249.608" font-family="Times,serif" font-size="14.00">defaultS</text>
</g>
<!-- end1&#45;&gt;defaultS -->
<g id="edge4" class="edge"><title>end1&#45;&gt;defaultS</title>
<path fill="none" stroke="black" d="M21.2173,-382.796C21.2173,-376.274 21.2173,-353.467 21.2173,-328.771"/>
<polygon fill="black" stroke="black" points="24.7174,-328.494 21.2173,-318.494 17.7174,-328.494 24.7174,-328.494"/>
</g>
<!-- end2 -->
<g id="node2" class="node"><title>end2</title>
<ellipse fill="black" stroke="black" cx="370.797" cy="-202.791" rx="1.8" ry="1.8"/>
</g>
<!-- end2&#45;&gt;end1 -->
<g id="edge19" class="edge"><title>end2&#45;&gt;end1</title>
<path fill="none" stroke="black" d="M368.916,-203.769C344.434,-216.506 88.266,-349.772 32.0734,-379.005"/>
<polygon fill="black" stroke="black" points="30.1981,-376.036 22.9421,-383.756 33.4288,-382.246 30.1981,-376.036"/>
</g>
<!-- end3 -->
<g id="node3" class="node"><title>end3</title>
<ellipse fill="black" stroke="black" cx="370.797" cy="201.347" rx="1.8" ry="1.8"/>
</g>
<!-- end3&#45;&gt;end2 -->
<g id="edge21" class="edge"><title>end3&#45;&gt;end2</title>
<path fill="none" stroke="black" d="M370.797,199.546C370.797,173.551 370.797,-125.934 370.797,-190.551"/>
<polygon fill="black" stroke="black" points="367.297,-190.781 370.797,-200.781 374.297,-190.781 367.297,-190.781"/>
</g>
<!-- end4 -->
<g id="node4" class="node"><title>end4</title>
<ellipse fill="black" stroke="black" cx="21.2173" cy="383.21" rx="1.8" ry="1.8"/>
</g>
<!-- end4&#45;&gt;end3 -->
<g id="edge20" class="edge"><title>end4&#45;&gt;end3</title>
<path fill="none" stroke="black" d="M23.0981,382.231C47.5799,369.495 303.748,236.228 359.941,206.995"/>
<polygon fill="black" stroke="black" points="358.585,203.755 369.072,202.245 361.816,209.965 358.585,203.755"/>
</g>
<!-- end5 -->
<g id="node5" class="node"><title>end5</title>
<ellipse fill="black" stroke="black" cx="-328.362" cy="201.347" rx="1.8" ry="1.8"/>
</g>
<!-- end5&#45;&gt;end4 -->
<g id="edge18" class="edge"><title>end5&#45;&gt;end4</title>
<path fill="none" stroke="black" d="M-326.482,202.326C-302,215.062 -45.8315,348.329 10.3611,377.562"/>
<polygon fill="black" stroke="black" points="12.2364,374.592 19.4924,382.312 9.00575,380.802 12.2364,374.592"/>
</g>
<!-- end6 -->
<g id="node6" class="node"><title>end6</title>
<ellipse fill="black" stroke="black" cx="-281.886" cy="-263.412" rx="1.8" ry="1.8"/>
</g>
<!-- end6&#45;&gt;end1 -->
<g id="edge22" class="edge"><title>end6&#45;&gt;end1</title>
<path fill="none" stroke="black" d="M-279.951,-264.186C-257.269,-273.259 -41.9305,-359.394 9.99295,-380.163"/>
<polygon fill="black" stroke="black" points="8.87158,-383.484 19.4562,-383.949 11.4714,-376.985 8.87158,-383.484"/>
</g>
<!-- modesS -->
<g id="node8" class="node"><title>modesS</title>
<ellipse fill="none" stroke="black" cx="21.2173" cy="-0.721676" rx="79" ry="79"/>
<text text-anchor="middle" x="21.2173" y="2.97832" font-family="Times,serif" font-size="14.00">modesS</text>
</g>
<!-- defaultS&#45;&gt;modesS -->
<g id="edge1" class="edge"><title>defaultS&#45;&gt;modesS</title>
<path fill="none" stroke="black" d="M21.2173,-188.261C21.2173,-158.452 21.2173,-122.637 21.2173,-90.3298"/>
<polygon fill="black" stroke="black" points="24.7174,-89.9756 21.2173,-79.9756 17.7174,-89.9757 24.7174,-89.9756"/>
</g>
<!-- stopwatchS -->
<g id="node9" class="node"><title>stopwatchS</title>
<ellipse fill="none" stroke="black" cx="283.907" cy="-152.274" rx="64.9885" ry="64.9885"/>
<text text-anchor="middle" x="283.907" y="-148.574" font-family="Times,serif" font-size="14.00">stopwatchS</text>
</g>
<!-- modesS&#45;&gt;stopwatchS -->
<g id="edge2" class="edge"><title>modesS&#45;&gt;stopwatchS</title>
<path fill="none" stroke="black" d="M89.8928,-40.3422C129.747,-63.3352 179.657,-92.1292 218.874,-114.755"/>
<polygon fill="black" stroke="black" points="217.169,-117.812 227.58,-119.777 220.667,-111.748 217.169,-117.812"/>
<text text-anchor="middle" x="133.052" y="-83.7532" font-family="Times,serif" font-size="14.00">Sel SW</text>
</g>
<!-- pulseS -->
<g id="node10" class="node"><title>pulseS</title>
<ellipse fill="none" stroke="black" cx="283.907" cy="150.83" rx="65" ry="65"/>
<text text-anchor="middle" x="283.907" y="154.53" font-family="Times,serif" font-size="14.00">pulseS</text>
</g>
<!-- modesS&#45;&gt;pulseS -->
<g id="edge5" class="edge"><title>modesS&#45;&gt;pulseS</title>
<path fill="none" stroke="black" d="M94.8514,27.9328C136.175,49.3601 186.968,78.7339 225.53,103.534"/>
<polygon fill="black" stroke="black" points="227.583,100.694 234.061,109.078 223.768,106.563 227.583,100.694"/>
<text text-anchor="middle" x="139.71" y="62.9793" font-family="Times,serif" font-size="14.00">Sel SW</text>
</g>
<!-- pendulumS -->
<g id="node11" class="node"><title>pendulumS</title>
<ellipse fill="none" stroke="black" cx="21.2173" cy="302.382" rx="63.0888" ry="63.0888"/>
<text text-anchor="middle" x="21.2173" y="306.082" font-family="Times,serif" font-size="14.00">pendulumS</text>
</g>
<!-- modesS&#45;&gt;pendulumS -->
<g id="edge8" class="edge"><title>modesS&#45;&gt;pendulumS</title>
<path fill="none" stroke="black" d="M33.2114,77.7293C35.3083,124.695 35.2153,183.976 32.9323,229.848"/>
<polygon fill="black" stroke="black" points="36.4172,230.221 32.3767,240.015 29.4277,229.839 36.4172,230.221"/>
<text text-anchor="start" x="11.2018" y="139.732" font-family="Times,serif" font-size="14.00">Sel</text>
<text text-anchor="start" x="9.70175" y="154.732" font-family="Times,serif" font-size="14.00">SW</text>
</g>
<!-- gateS -->
<g id="node12" class="node"><title>gateS</title>
<ellipse fill="none" stroke="black" cx="-239.434" cy="154.143" rx="65" ry="65"/>
<text text-anchor="middle" x="-239.434" y="157.843" font-family="Times,serif" font-size="14.00">gateS</text>
</g>
<!-- modesS&#45;&gt;gateS -->
<g id="edge11" class="edge"><title>modesS&#45;&gt;gateS</title>
<path fill="none" stroke="black" d="M-40.1194,49.6727C-78.8895,75.1131 -129.047,104.842 -169.377,126.255"/>
<polygon fill="black" stroke="black" points="-167.869,129.416 -178.35,130.966 -171.123,123.219 -167.869,129.416"/>
<text text-anchor="start" x="-133.607" y="103.005" font-family="Times,serif" font-size="14.00">Sel</text>
<text text-anchor="start" x="-137.107" y="118.005" font-family="Times,serif" font-size="14.00"> SW</text>
</g>
<!-- picketfence1S -->
<g id="node13" class="node"><title>picketfence1S</title>
<ellipse fill="none" stroke="black" cx="-241.473" cy="-152.274" rx="77.1866" ry="77.1866"/>
<text text-anchor="middle" x="-241.473" y="-148.574" font-family="Times,serif" font-size="14.00">picketfence1S</text>
</g>
<!-- modesS&#45;&gt;picketfence1S -->
<g id="edge14" class="edge"><title>modesS&#45;&gt;picketfence1S</title>
<path fill="none" stroke="black" d="M-47.4583,-40.3422C-83.627,-61.2088 -128.077,-86.853 -165.301,-108.329"/>
<polygon fill="black" stroke="black" points="-167.194,-105.38 -174.107,-113.409 -163.696,-111.443 -167.194,-105.38"/>
<text text-anchor="middle" x="-136.24" y="-80.651" font-family="Times,serif" font-size="14.00">Sel SW</text>
</g>
<!-- stopwatchS&#45;&gt;end2 -->
<g id="edge3" class="edge"><title>stopwatchS&#45;&gt;end2</title>
<path fill="none" stroke="black" d="M340.407,-185.122C347.903,-189.48 354.827,-193.506 360.167,-196.61"/>
<polygon fill="black" stroke="black" points="358.528,-199.706 368.932,-201.706 362.046,-193.654 358.528,-199.706"/>
<text text-anchor="start" x="354.727" y="-182.248" font-family="Times,serif" font-size="14.00">Reset SW</text>
</g>
<!-- pulseS&#45;&gt;end3 -->
<g id="edge7" class="edge"><title>pulseS&#45;&gt;end3</title>
<path fill="none" stroke="black" d="M340.407,183.679C347.903,188.037 354.827,192.063 360.167,195.167"/>
<polygon fill="black" stroke="black" points="362.046,192.211 368.932,200.263 358.528,198.263 362.046,192.211"/>
<text text-anchor="start" x="354.727" y="188.205" font-family="Times,serif" font-size="14.00">Reset SW</text>
</g>
<!-- pulseS&#45;&gt;modesS -->
<g id="edge6" class="edge"><title>pulseS&#45;&gt;modesS</title>
<path fill="none" stroke="black" d="M222.565,128.454C183.336,108.744 132.398,79.7889 91.5426,54.1607"/>
<polygon fill="black" stroke="black" points="89.565,57.0512 82.9855,48.7469 93.3075,51.1356 89.565,57.0512"/>
<text text-anchor="start" x="73.797" y="101.384" font-family="Times,serif" font-size="14.00">Single Run</text>
<text text-anchor="start" x="94.297" y="116.384" font-family="Times,serif" font-size="14.00">Done</text>
</g>
<!-- pendulumS&#45;&gt;end4 -->
<g id="edge10" class="edge"><title>pendulumS&#45;&gt;end4</title>
<path fill="none" stroke="black" d="M21.2173,365.671C21.2173,367.539 21.2173,369.309 21.2173,370.955"/>
<polygon fill="black" stroke="black" points="24.7174,371.202 21.2173,381.202 17.7174,371.202 24.7174,371.202"/>
<text text-anchor="start" x="-48.7827" y="382.078" font-family="Times,serif" font-size="14.00">Reset SW</text>
</g>
<!-- pendulumS&#45;&gt;modesS -->
<g id="edge9" class="edge"><title>pendulumS&#45;&gt;modesS</title>
<path fill="none" stroke="black" d="M10.0757,240.313C7.43017,196.332 7.01032,136.686 8.81614,87.7325"/>
<polygon fill="black" stroke="black" points="5.33048,87.3072 9.23526,77.4582 12.3247,87.5926 5.33048,87.3072"/>
<text text-anchor="start" x="-37.2651" y="125.236" font-family="Times,serif" font-size="14.00">Single</text>
<text text-anchor="start" x="-29.2651" y="140.236" font-family="Times,serif" font-size="14.00">Run</text>
<text text-anchor="start" x="-33.2651" y="155.236" font-family="Times,serif" font-size="14.00">Done</text>
</g>
<!-- gateS&#45;&gt;end5 -->
<g id="edge13" class="edge"><title>gateS&#45;&gt;end5</title>
<path fill="none" stroke="black" d="M-297.01,184.705C-304.731,188.804 -311.874,192.595 -317.385,195.521"/>
<polygon fill="black" stroke="black" points="-315.962,198.727 -326.435,200.325 -319.244,192.545 -315.962,198.727"/>
<text text-anchor="start" x="-381.772" y="188.741" font-family="Times,serif" font-size="14.00">Reset SW</text>
</g>
<!-- gateS&#45;&gt;modesS -->
<g id="edge12" class="edge"><title>gateS&#45;&gt;modesS</title>
<path fill="none" stroke="black" d="M-189.914,111.61C-153.538,87.0529 -103.372,56.8113 -61.0397,33.7331"/>
<polygon fill="black" stroke="black" points="-62.5949,30.5952 -52.1331,28.9218 -59.2679,36.7541 -62.5949,30.5952"/>
<text text-anchor="start" x="-170.926" y="34.8378" font-family="Times,serif" font-size="14.00">Single </text>
<text text-anchor="start" x="-160.926" y="49.8378" font-family="Times,serif" font-size="14.00">Run</text>
<text text-anchor="start" x="-164.926" y="64.8378" font-family="Times,serif" font-size="14.00">Done</text>
</g>
<!-- picketfence1S&#45;&gt;end6 -->
<g id="edge15" class="edge"><title>picketfence1S&#45;&gt;end6</title>
<path fill="none" stroke="black" d="M-267.978,-225.164C-271.798,-235.669 -275.285,-245.256 -277.811,-252.204"/>
<polygon fill="black" stroke="black" points="-281.128,-251.083 -281.256,-261.677 -274.549,-253.475 -281.128,-251.083"/>
<text text-anchor="start" x="-344.744" y="-247.571" font-family="Times,serif" font-size="14.00">Reset SW</text>
</g>
<!-- cycleTimesS -->
<g id="node14" class="node"><title>cycleTimesS</title>
<ellipse fill="none" stroke="black" cx="-324.365" cy="16.1294" rx="65" ry="65"/>
<text text-anchor="middle" x="-324.365" y="19.8294" font-family="Times,serif" font-size="14.00">cycleTimesS</text>
</g>
<!-- picketfence1S&#45;&gt;cycleTimesS -->
<g id="edge16" class="edge"><title>picketfence1S&#45;&gt;cycleTimesS</title>
<path fill="none" stroke="black" d="M-263.265,-77.9088C-268.425,-66.7497 -274.053,-55.3587 -279.76,-44.5289"/>
<polygon fill="black" stroke="black" points="-276.75,-42.736 -284.564,-35.5812 -282.918,-46.0473 -276.75,-42.736"/>
<text text-anchor="start" x="-251.156" y="-45.1854" font-family="Times,serif" font-size="14.00">All </text>
<text text-anchor="start" x="-263.156" y="-30.1854" font-family="Times,serif" font-size="14.00">Edges </text>
<text text-anchor="start" x="-273.656" y="-15.1854" font-family="Times,serif" font-size="14.00"> Detected</text>
</g>
<!-- cycleTimesS&#45;&gt;picketfence1S -->
<g id="edge17" class="edge"><title>cycleTimesS&#45;&gt;picketfence1S</title>
<path fill="none" stroke="black" d="M-307.623,-47.0411C-302.844,-57.9124 -297.467,-69.2796 -291.88,-80.3586"/>
<polygon fill="black" stroke="black" points="-294.827,-82.2823 -287.146,-89.5799 -288.6,-79.0852 -294.827,-82.2823"/>
<text text-anchor="start" x="-321.304" y="-57.1388" font-family="Times,serif" font-size="14.00">Sel</text>
<text text-anchor="start" x="-322.804" y="-42.1388" font-family="Times,serif" font-size="14.00">SW</text>
</g>
</g>
</svg>
