<?xml version="1.0" encoding="UTF-8" standalone="no"?>
<!DOCTYPE svg PUBLIC "-//W3C//DTD SVG 1.1//EN"
 "http://www.w3.org/Graphics/SVG/1.1/DTD/svg11.dtd">
<!-- Generated by graphviz version 2.38.0 (20140413.2041)
 -->
<!-- Title: finite_state_machine Pages: 1 -->
<svg width="748pt" height="875pt"
 viewBox="0.00 0.00 748.00 875.08" xmlns="http://www.w3.org/2000/svg" xmlns:xlink="http://www.w3.org/1999/xlink">
<g id="graph0" class="graph" transform="scale(1 1) rotate(0) translate(4 871.075)">
<title>finite_state_machine</title>
<polygon fill="white" stroke="none" points="-4,4 -4,-871.075 744,-871.075 744,4 -4,4"/>
<g id="clust1" class="cluster"><title>cluster_mode</title>
<polygon fill="none" stroke="black" points="177,-166 177,-733.475 355,-733.475 355,-166 177,-166"/>
<text text-anchor="middle" x="266" y="-718.275" font-family="Times,serif" font-size="14.00">modeS</text>
</g>
<!-- start -->
<g id="node1" class="node"><title>start</title>
<ellipse fill="black" stroke="black" cx="277" cy="-835.275" rx="1.8" ry="1.8"/>
<text text-anchor="start" x="113.2" y="-855.875" font-family="Times,serif" font-size="14.00">Take points at top and</text>
<text text-anchor="start" x="111.2" y="-840.875" font-family="Times,serif" font-size="14.00"> bottom as same point.</text>
</g>
<!-- defaultS -->
<g id="node8" class="node"><title>defaultS</title>
<ellipse fill="none" stroke="black" cx="277" cy="-778.475" rx="49.2915" ry="18"/>
<text text-anchor="middle" x="277" y="-774.775" font-family="Times,serif" font-size="14.00">defaultS</text>
</g>
<!-- start&#45;&gt;defaultS -->
<g id="edge6" class="edge"><title>start&#45;&gt;defaultS</title>
<path fill="none" stroke="black" d="M277,-833.324C277,-829.96 277,-818.2 277,-806.525"/>
<polygon fill="black" stroke="black" points="280.5,-806.5 277,-796.5 273.5,-806.5 280.5,-806.5"/>
</g>
<!-- end -->
<g id="node2" class="node"><title>end</title>
<ellipse fill="black" stroke="black" cx="487" cy="-18" rx="1.8" ry="1.8"/>
<text text-anchor="middle" x="397.2" y="-23.6" font-family="Times,serif" font-size="14.00">same point as one at top</text>
</g>
<!-- op1 -->
<g id="node3" class="node"><title>op1</title>
<ellipse fill="none" stroke="black" cx="277" cy="-674.528" rx="27.8951" ry="27.8951"/>
<text text-anchor="middle" x="277" y="-670.828" font-family="Times,serif" font-size="14.00">op1</text>
</g>
<!-- op2 -->
<g id="node4" class="node"><title>op2</title>
<ellipse fill="none" stroke="black" cx="298" cy="-567.633" rx="27.8951" ry="27.8951"/>
<text text-anchor="middle" x="298" y="-563.933" font-family="Times,serif" font-size="14.00">op2</text>
</g>
<!-- op1&#45;&gt;op2 -->
<g id="edge1" class="edge"><title>op1&#45;&gt;op2</title>
<path fill="none" stroke="black" d="M282.299,-647.058C284.836,-634.387 287.915,-619.009 290.671,-605.239"/>
<polygon fill="black" stroke="black" points="294.171,-605.586 292.703,-595.094 287.307,-604.212 294.171,-605.586"/>
<text text-anchor="middle" x="324" y="-617.38" font-family="Times,serif" font-size="14.00">Cycle SW</text>
</g>
<!-- stopwatchS -->
<g id="node9" class="node"><title>stopwatchS</title>
<ellipse fill="none" stroke="black" cx="549" cy="-567.633" rx="64.9885" ry="18"/>
<text text-anchor="middle" x="549" y="-563.933" font-family="Times,serif" font-size="14.00">stopwatchS</text>
</g>
<!-- op1&#45;&gt;stopwatchS -->
<g id="edge8" class="edge"><title>op1&#45;&gt;stopwatchS</title>
<path fill="none" stroke="black" d="M303.081,-663.47C349.211,-645.68 445.737,-608.456 503.182,-586.302"/>
<polygon fill="black" stroke="black" points="504.671,-589.479 512.742,-582.615 502.152,-582.948 504.671,-589.479"/>
<text text-anchor="middle" x="455.5" y="-617.38" font-family="Times,serif" font-size="14.00">Sel SW</text>
</g>
<!-- op3 -->
<g id="node5" class="node"><title>op3</title>
<ellipse fill="none" stroke="black" cx="319" cy="-445.738" rx="27.8951" ry="27.8951"/>
<text text-anchor="middle" x="319" y="-442.038" font-family="Times,serif" font-size="14.00">op3</text>
</g>
<!-- op2&#45;&gt;op3 -->
<g id="edge2" class="edge"><title>op2&#45;&gt;op3</title>
<path fill="none" stroke="black" d="M284.259,-543.256C277.264,-528.257 271.479,-508.511 278,-491.685 280.782,-484.508 285.302,-477.775 290.346,-471.814"/>
<polygon fill="black" stroke="black" points="293.185,-473.902 297.434,-464.196 288.06,-469.133 293.185,-473.902"/>
<text text-anchor="middle" x="313" y="-502.985" font-family="Times,serif" font-size="14.00">Cycle SW</text>
</g>
<!-- pulseS -->
<g id="node10" class="node"><title>pulseS</title>
<ellipse fill="none" stroke="black" cx="444" cy="-445.738" rx="41.6928" ry="18"/>
<text text-anchor="middle" x="444" y="-442.038" font-family="Times,serif" font-size="14.00">pulseS</text>
</g>
<!-- op2&#45;&gt;pulseS -->
<g id="edge10" class="edge"><title>op2&#45;&gt;pulseS</title>
<path fill="none" stroke="black" d="M319.238,-549.078C328.444,-541.086 339.124,-531.283 348,-521.685 359.407,-509.35 358.529,-502.943 371,-491.685 382.29,-481.493 396.2,-472.276 408.838,-464.879"/>
<polygon fill="black" stroke="black" points="410.783,-467.8 417.76,-459.827 407.334,-461.708 410.783,-467.8"/>
<text text-anchor="middle" x="396.5" y="-502.985" font-family="Times,serif" font-size="14.00">Sel SW</text>
</g>
<!-- op4 -->
<g id="node6" class="node"><title>op4</title>
<ellipse fill="none" stroke="black" cx="298" cy="-323.843" rx="27.8951" ry="27.8951"/>
<text text-anchor="middle" x="298" y="-320.143" font-family="Times,serif" font-size="14.00">op4</text>
</g>
<!-- op3&#45;&gt;op4 -->
<g id="edge3" class="edge"><title>op3&#45;&gt;op4</title>
<path fill="none" stroke="black" d="M297.434,-427.279C289.771,-419.73 282.046,-410.229 278,-399.79 272.752,-386.25 275.474,-370.82 280.382,-357.494"/>
<polygon fill="black" stroke="black" points="283.631,-358.795 284.259,-348.219 277.173,-356.095 283.631,-358.795"/>
<text text-anchor="middle" x="313" y="-381.09" font-family="Times,serif" font-size="14.00">Cycle SW</text>
</g>
<!-- pendulumS -->
<g id="node11" class="node"><title>pendulumS</title>
<ellipse fill="none" stroke="black" cx="444" cy="-323.843" rx="63.0888" ry="18"/>
<text text-anchor="middle" x="444" y="-320.143" font-family="Times,serif" font-size="14.00">pendulumS</text>
</g>
<!-- op3&#45;&gt;pendulumS -->
<g id="edge13" class="edge"><title>op3&#45;&gt;pendulumS</title>
<path fill="none" stroke="black" d="M334.03,-422.088C347.714,-401.632 366.457,-374.091 371,-369.79 380.99,-360.331 393.284,-351.843 404.915,-344.858"/>
<polygon fill="black" stroke="black" points="406.726,-347.854 413.631,-339.818 403.222,-341.794 406.726,-347.854"/>
<text text-anchor="middle" x="396.5" y="-381.09" font-family="Times,serif" font-size="14.00">Sel SW</text>
</g>
<!-- op5 -->
<g id="node7" class="node"><title>op5</title>
<ellipse fill="none" stroke="black" cx="227" cy="-201.948" rx="27.8951" ry="27.8951"/>
<text text-anchor="middle" x="227" y="-198.248" font-family="Times,serif" font-size="14.00">op5</text>
</g>
<!-- op4&#45;&gt;op5 -->
<g id="edge4" class="edge"><title>op4&#45;&gt;op5</title>
<path fill="none" stroke="black" d="M271.858,-313.477C256.13,-306.338 237.391,-294.817 228,-277.895 221.685,-266.517 220.151,-252.592 220.627,-239.846"/>
<polygon fill="black" stroke="black" points="224.146,-239.741 221.438,-229.498 217.167,-239.194 224.146,-239.741"/>
<text text-anchor="middle" x="263" y="-259.195" font-family="Times,serif" font-size="14.00">Cycle SW</text>
</g>
<!-- gateS -->
<g id="node12" class="node"><title>gateS</title>
<ellipse fill="none" stroke="black" cx="400" cy="-201.948" rx="37.0935" ry="18"/>
<text text-anchor="middle" x="400" y="-198.248" font-family="Times,serif" font-size="14.00">gateS</text>
</g>
<!-- op4&#45;&gt;gateS -->
<g id="edge16" class="edge"><title>op4&#45;&gt;gateS</title>
<path fill="none" stroke="black" d="M300.819,-295.973C303.675,-280.396 309.425,-261.278 321,-247.895 333.225,-233.761 342.708,-239.049 359,-229.895 362.95,-227.676 367.028,-225.216 371.011,-222.71"/>
<polygon fill="black" stroke="black" points="372.992,-225.597 379.491,-217.229 369.193,-219.718 372.992,-225.597"/>
<text text-anchor="middle" x="347.5" y="-259.195" font-family="Times,serif" font-size="14.00">Sel SW</text>
</g>
<!-- op5&#45;&gt;op1 -->
<g id="edge5" class="edge"><title>op5&#45;&gt;op1</title>
<path fill="none" stroke="black" d="M218.741,-228.844C211.798,-252.927 203,-289.939 203,-322.843 203,-568.633 203,-568.633 203,-568.633 203,-601.042 226.879,-630.479 247.507,-649.862"/>
<polygon fill="black" stroke="black" points="245.424,-652.696 255.198,-656.784 250.107,-647.493 245.424,-652.696"/>
<text text-anchor="middle" x="238" y="-442.038" font-family="Times,serif" font-size="14.00">Cycle SW</text>
</g>
<!-- picketfence1S -->
<g id="node13" class="node"><title>picketfence1S</title>
<ellipse fill="none" stroke="black" cx="229" cy="-105" rx="77.1866" ry="18"/>
<text text-anchor="middle" x="229" y="-101.3" font-family="Times,serif" font-size="14.00">picketfence1S</text>
</g>
<!-- op5&#45;&gt;picketfence1S -->
<g id="edge19" class="edge"><title>op5&#45;&gt;picketfence1S</title>
<path fill="none" stroke="black" d="M227.568,-173.993C227.837,-161.229 228.157,-146.015 228.427,-133.217"/>
<polygon fill="black" stroke="black" points="231.927,-133.214 228.639,-123.143 224.929,-133.067 231.927,-133.214"/>
<text text-anchor="middle" x="254.5" y="-144.8" font-family="Times,serif" font-size="14.00">Sel SW</text>
</g>
<!-- defaultS&#45;&gt;op1 -->
<g id="edge7" class="edge"><title>defaultS&#45;&gt;op1</title>
<path fill="none" stroke="black" d="M277,-760.181C277,-747.226 277,-729.018 277,-712.805"/>
<polygon fill="black" stroke="black" points="280.5,-712.515 277,-702.515 273.5,-712.515 280.5,-712.515"/>
<text text-anchor="start" x="28" y="-764.913" font-family="Times,serif" font-size="14.00">modeS cycle options in display</text>
<text text-anchor="start" x="83.5" y="-749.913" font-family="Times,serif" font-size="14.00">using cycle SW</text>
<text text-anchor="start" x="0" y="-734.913" font-family="Times,serif" font-size="14.00">Select option with Mode Select Switch</text>
</g>
<!-- stopwatchS&#45;&gt;end -->
<g id="edge9" class="edge"><title>stopwatchS&#45;&gt;end</title>
<path fill="none" stroke="black" d="M581.426,-551.82C617.267,-532.958 670,-496.716 670,-446.738 670,-446.738 670,-446.738 670,-104 670,-28.1666 539.144,-19.8044 498.739,-19.0299"/>
<polygon fill="black" stroke="black" points="498.601,-15.5292 488.582,-18.9742 498.563,-22.5291 498.601,-15.5292"/>
<text text-anchor="middle" x="705" y="-259.195" font-family="Times,serif" font-size="14.00">Reset SW</text>
</g>
<!-- pulseS&#45;&gt;end -->
<g id="edge12" class="edge"><title>pulseS&#45;&gt;end</title>
<path fill="none" stroke="black" d="M473.366,-432.78C511.156,-415.212 572,-378.584 572,-324.843 572,-324.843 572,-324.843 572,-104 572,-62.2855 520.181,-33.8926 497.463,-23.4492"/>
<polygon fill="black" stroke="black" points="498.771,-20.2019 488.202,-19.4649 496.004,-26.6321 498.771,-20.2019"/>
<text text-anchor="middle" x="607" y="-198.248" font-family="Times,serif" font-size="14.00">Reset SW</text>
</g>
<!-- pulseS&#45;&gt;op2 -->
<g id="edge11" class="edge"><title>pulseS&#45;&gt;op2</title>
<path fill="none" stroke="black" d="M443.307,-463.781C441.737,-480.55 436.857,-505.873 422,-521.685 399.545,-545.583 363.41,-556.809 335.927,-562.062"/>
<polygon fill="black" stroke="black" points="335.124,-558.649 325.864,-563.797 336.313,-565.547 335.124,-558.649"/>
<text text-anchor="start" x="438" y="-510.485" font-family="Times,serif" font-size="14.00">Single Run</text>
<text text-anchor="start" x="458.5" y="-495.485" font-family="Times,serif" font-size="14.00">Done</text>
</g>
<!-- pendulumS&#45;&gt;end -->
<g id="edge15" class="edge"><title>pendulumS&#45;&gt;end</title>
<path fill="none" stroke="black" d="M456.863,-305.844C462.229,-297.802 467.92,-287.805 471,-277.895 485.705,-230.579 486.952,-73.312 487.012,-30.0807"/>
<polygon fill="black" stroke="black" points="490.512,-29.9093 487.004,-19.9121 483.512,-29.915 490.512,-29.9093"/>
<text text-anchor="middle" x="520" y="-144.8" font-family="Times,serif" font-size="14.00">Reset SW</text>
</g>
<!-- pendulumS&#45;&gt;op3 -->
<g id="edge14" class="edge"><title>pendulumS&#45;&gt;op3</title>
<path fill="none" stroke="black" d="M443.058,-342.002C441.29,-358.62 436.257,-383.614 422,-399.79 412.677,-410.368 381.049,-423.329 355.274,-432.61"/>
<polygon fill="black" stroke="black" points="354.006,-429.346 345.741,-435.975 356.336,-435.947 354.006,-429.346"/>
<text text-anchor="start" x="438" y="-388.59" font-family="Times,serif" font-size="14.00">Single Run</text>
<text text-anchor="start" x="458.5" y="-373.59" font-family="Times,serif" font-size="14.00">Done</text>
</g>
<!-- gateS&#45;&gt;end -->
<g id="edge18" class="edge"><title>gateS&#45;&gt;end</title>
<path fill="none" stroke="black" d="M396.181,-183.67C391.951,-160.38 387.591,-118.235 403,-87 418.917,-54.7349 458.117,-32.654 476.79,-23.6027"/>
<polygon fill="black" stroke="black" points="478.251,-26.7835 485.901,-19.4531 475.349,-20.4132 478.251,-26.7835"/>
<text text-anchor="middle" x="438" y="-101.3" font-family="Times,serif" font-size="14.00">Reset SW</text>
</g>
<!-- gateS&#45;&gt;op4 -->
<g id="edge17" class="edge"><title>gateS&#45;&gt;op4</title>
<path fill="none" stroke="black" d="M396.983,-220.054C393.377,-236.4 385.991,-260.986 372,-277.895 361.567,-290.504 346.624,-300.518 332.893,-307.863"/>
<polygon fill="black" stroke="black" points="331.006,-304.895 323.652,-312.521 334.157,-311.146 331.006,-304.895"/>
<text text-anchor="start" x="389" y="-266.695" font-family="Times,serif" font-size="14.00">Single Run</text>
<text text-anchor="start" x="409.5" y="-251.695" font-family="Times,serif" font-size="14.00">Done</text>
</g>
<!-- picketfence1S&#45;&gt;end -->
<g id="edge20" class="edge"><title>picketfence1S&#45;&gt;end</title>
<path fill="none" stroke="black" d="M249.369,-87.3933C264.003,-76.2946 284.661,-62.2641 305,-54 365.97,-29.2266 445.69,-21.6974 475.282,-19.6712"/>
<polygon fill="black" stroke="black" points="475.704,-23.1525 485.479,-19.0672 475.29,-16.1647 475.704,-23.1525"/>
<text text-anchor="middle" x="340" y="-57.8" font-family="Times,serif" font-size="14.00">Reset SW</text>
</g>
<!-- cycleTimesS -->
<g id="node14" class="node"><title>cycleTimesS</title>
<ellipse fill="none" stroke="black" cx="149" cy="-18" rx="68.7879" ry="18"/>
<text text-anchor="middle" x="149" y="-14.3" font-family="Times,serif" font-size="14.00">cycleTimesS</text>
</g>
<!-- picketfence1S&#45;&gt;cycleTimesS -->
<g id="edge21" class="edge"><title>picketfence1S&#45;&gt;cycleTimesS</title>
<path fill="none" stroke="black" d="M158.863,-97.3139C121.352,-92.1308 80.5443,-83.3426 69,-69 57.2891,-54.4504 71.8855,-42.9417 91.6757,-34.6519"/>
<polygon fill="black" stroke="black" points="92.964,-37.9065 101.058,-31.0702 90.4675,-31.3668 92.964,-37.9065"/>
<text text-anchor="middle" x="138.5" y="-57.8" font-family="Times,serif" font-size="14.00">All Edges Detected</text>
</g>
<!-- cycleTimesS&#45;&gt;picketfence1S -->
<g id="edge22" class="edge"><title>cycleTimesS&#45;&gt;picketfence1S</title>
<path fill="none" stroke="black" d="M182.371,-33.8679C191.578,-39.1913 200.96,-45.9169 208,-54 213.803,-60.6629 218.173,-69.1598 221.382,-77.2508"/>
<polygon fill="black" stroke="black" points="218.111,-78.5008 224.737,-86.768 224.713,-76.1732 218.111,-78.5008"/>
<text text-anchor="middle" x="243.5" y="-57.8" font-family="Times,serif" font-size="14.00">Sel SW</text>
</g>
</g>
</svg>
